<?xml version="1.0" encoding="UTF-8"?>
<svg id="Layer_1" data-name="Layer 1" xmlns="http://www.w3.org/2000/svg" viewBox="0 0 1080 501.91">
  <defs>
    <style>
      .cls-1 {
        fill: #fffef9;
      }
    </style>
  </defs>
  <g>
    <path class="cls-1" d="M104.29,206.84c-14.55,0-28.15-2.58-40.8-7.75-12.66-5.16-23.75-12.36-33.27-21.6-9.53-9.24-16.95-20.04-22.25-32.4-5.31-12.36-7.97-25.75-7.97-40.15s2.65-27.78,7.97-40.15c5.31-12.36,12.73-23.2,22.25-32.51,9.52-9.31,20.58-16.58,33.16-21.82,12.58-5.24,26.15-7.85,40.69-7.85,13.67,0,26.47,2.33,38.4,6.98,11.93,4.66,22.47,11.2,31.64,19.64l-9.16,37.53c-6.11-9.89-14.4-18-24.87-24.33-10.47-6.33-22.47-9.49-36-9.49s-25.39,3.2-36,9.6c-10.62,6.4-19.06,15.02-25.31,25.85-6.26,10.84-9.38,23.02-9.38,36.55s3.09,25.71,9.27,36.55c6.18,10.84,14.62,19.46,25.31,25.86,10.69,6.4,22.65,9.6,35.89,9.6,6.98,0,13.6-.8,19.86-2.4,6.25-1.6,11.93-3.85,17.02-6.76v-44.73h-46.91v-27.49h76.8v90.98c-8.87,6.55-19.02,11.56-30.44,15.06-11.42,3.49-23.38,5.24-35.89,5.24Z"/>
    <path class="cls-1" d="M214.69,202.91V6.55h32.73v167.57h63.49v28.8h-96.22Z"/>
    <path class="cls-1" d="M417.38,206.84c-14.26,0-27.64-2.66-40.15-7.96-12.51-5.31-23.49-12.62-32.94-21.93-9.46-9.31-16.84-20.15-22.15-32.51-5.31-12.36-7.97-25.6-7.97-39.71s2.65-27.34,7.97-39.71c5.31-12.36,12.69-23.2,22.15-32.51,9.45-9.31,20.43-16.62,32.94-21.93,12.51-5.31,25.89-7.96,40.15-7.96s27.82,2.66,40.26,7.96c12.44,5.31,23.38,12.62,32.84,21.93,9.45,9.31,16.83,20.15,22.15,32.51,5.31,12.37,7.96,25.6,7.96,39.71s-2.66,27.35-7.96,39.71c-5.31,12.36-12.69,23.2-22.15,32.51-9.46,9.31-20.4,16.62-32.84,21.93-12.44,5.31-25.86,7.96-40.26,7.96ZM417.38,176.07c13.09,0,24.91-3.2,35.46-9.6,10.54-6.4,18.91-15.02,25.09-25.86,6.18-10.83,9.27-22.8,9.27-35.89s-3.09-25.23-9.27-36c-6.18-10.76-14.55-19.34-25.09-25.75-10.55-6.4-22.36-9.6-35.46-9.6s-24.91,3.2-35.46,9.6c-10.55,6.4-18.91,14.98-25.09,25.75-6.18,10.77-9.27,22.77-9.27,36s3.09,25.06,9.27,35.89c6.18,10.84,14.54,19.46,25.09,25.86,10.54,6.4,22.36,9.6,35.46,9.6Z"/>
    <path class="cls-1" d="M606.76,209.67L528.44,6.55h33.38l38.84,100.8c1.6,3.93,3.05,7.89,4.36,11.89,1.31,4,2.69,8.84,4.14,14.51,1.6-5.67,3.13-10.51,4.58-14.51,1.45-4,2.91-7.96,4.36-11.89L659.35,0l41.24,107.35c1.45,3.78,2.98,7.67,4.58,11.67,1.6,4,3.13,8.91,4.58,14.73,1.6-5.82,3.09-10.73,4.47-14.73,1.38-4,2.8-7.89,4.25-11.67l38.4-100.8h31.64l-78.11,203.13-42.98-112.15c-1.45-3.78-2.91-7.67-4.36-11.67-1.45-4-2.91-8.91-4.36-14.73-1.6,5.82-3.13,10.69-4.58,14.62-1.46,3.93-2.91,7.85-4.36,11.78l-42.98,112.15Z"/>
  </g>
  <g>
    <path class="cls-1" d="M56.95,501.48c-11.78,0-22.73-2.26-32.84-6.76-10.11-4.51-18.15-10.04-24.11-16.58l8.94-36.87c4.65,8.44,11.35,15.78,20.07,22.04,8.73,6.25,18.4,9.38,29.02,9.38,9.02,0,16.36-2.73,22.04-8.18s8.51-12.11,8.51-19.96c0-6.11-1.42-11.13-4.25-15.05s-6.15-7.09-9.93-9.49c-3.78-2.4-6.91-4.18-9.38-5.35l-23.56-11.78c-5.24-2.76-10.77-6.18-16.58-10.25-5.82-4.07-10.77-9.41-14.84-16.04-4.07-6.62-6.11-15.02-6.11-25.2s2.4-19.71,7.2-27.71c4.8-8,11.56-14.25,20.29-18.76,8.73-4.51,18.83-6.76,30.33-6.76s20.87,1.86,29.46,5.56c8.58,3.71,15.42,7.6,20.51,11.67l-8.73,36.44c-4.66-6.83-10.8-12.76-18.44-17.78-7.64-5.02-15.75-7.53-24.33-7.53-7.86,0-14.04,2.22-18.55,6.66-4.51,4.44-6.76,9.86-6.76,16.25,0,4.51,1.05,8.37,3.16,11.56,2.11,3.2,4.72,5.86,7.86,7.96,3.13,2.11,6.22,3.97,9.27,5.56l24,12c3.35,1.6,7.31,3.82,11.89,6.65s9.05,6.44,13.42,10.8,7.96,9.67,10.8,15.93c2.84,6.25,4.25,13.75,4.25,22.47,0,11.35-2.66,21.49-7.96,30.44-5.31,8.95-12.62,15.97-21.93,21.06-9.31,5.09-20.22,7.64-32.73,7.64Z"/>
    <path class="cls-1" d="M245.89,501.91c-14.26,0-27.64-2.66-40.15-7.96-12.51-5.31-23.49-12.62-32.94-21.93-9.46-9.31-16.84-20.15-22.15-32.51-5.31-12.36-7.97-25.6-7.97-39.71s2.65-27.34,7.97-39.71c5.31-12.36,12.69-23.2,22.15-32.51,9.45-9.31,20.43-16.62,32.94-21.93,12.51-5.31,25.89-7.96,40.15-7.96s27.82,2.66,40.26,7.96c12.44,5.31,23.38,12.62,32.84,21.93,9.45,9.31,16.83,20.15,22.15,32.51,5.31,12.37,7.96,25.6,7.96,39.71s-2.66,27.35-7.96,39.71c-5.31,12.36-12.69,23.2-22.15,32.51-9.46,9.31-20.4,16.62-32.84,21.93-12.44,5.31-25.86,7.96-40.26,7.96ZM245.89,471.15c13.09,0,24.91-3.2,35.46-9.6,10.54-6.4,18.91-15.02,25.09-25.86,6.18-10.83,9.27-22.8,9.27-35.89s-3.09-25.23-9.27-36c-6.18-10.76-14.55-19.34-25.09-25.75-10.55-6.4-22.36-9.6-35.46-9.6s-24.91,3.2-35.46,9.6c-10.55,6.4-18.91,14.98-25.09,25.75-6.18,10.77-9.27,22.77-9.27,36s3.09,25.06,9.27,35.89c6.18,10.84,14.54,19.46,25.09,25.86,10.54,6.4,22.36,9.6,35.46,9.6Z"/>
    <path class="cls-1" d="M477.16,501.91c-14.26,0-27.64-2.66-40.15-7.96-12.51-5.31-23.49-12.62-32.94-21.93-9.46-9.31-16.84-20.15-22.15-32.51-5.31-12.36-7.97-25.6-7.97-39.71s2.65-27.34,7.97-39.71c5.31-12.36,12.69-23.2,22.15-32.51,9.45-9.31,20.43-16.62,32.94-21.93,12.51-5.31,25.89-7.96,40.15-7.96,13.38,0,26,2.33,37.85,6.98,11.85,4.66,22.36,11.2,31.53,19.64l-9.16,37.96c-5.97-9.89-14.15-18-24.55-24.33-10.4-6.33-22.08-9.49-35.02-9.49s-24.91,3.2-35.45,9.6c-10.55,6.4-18.91,14.98-25.09,25.75-6.18,10.77-9.27,22.77-9.27,36s3.09,25.06,9.27,35.89c6.18,10.84,14.54,19.46,25.09,25.86,10.54,6.4,22.36,9.6,35.45,9.6s24.62-3.2,35.02-9.6c10.4-6.4,18.58-14.47,24.55-24.22l9.16,37.96c-9.16,8.29-19.67,14.8-31.53,19.53-11.86,4.72-24.47,7.09-37.85,7.09Z"/>
    <path class="cls-1" d="M580.8,497.99v-196.37h32.73v196.37h-32.73Z"/>
    <path class="cls-1" d="M663.93,497.99v-196.37h100.8v28.15h-69.38v36h54.11v27.49h-54.11v75.93h69.38v28.8h-100.8Z"/>
    <path class="cls-1" d="M786.98,330.42v-28.8h133.09v28.8h-50.18v167.57h-32.73v-167.57h-50.18Z"/>
    <path class="cls-1" d="M990.11,497.99v-93.82l-57.6-102.55h36.44l27.71,50.62c1.89,3.35,3.71,6.73,5.45,10.14,1.75,3.42,3.49,7.46,5.24,12.11,1.89-4.65,3.71-8.69,5.45-12.11,1.75-3.41,3.56-6.8,5.45-10.14l27.93-50.62h33.82l-57.6,102.55v93.82h-32.29Z"/>
  </g>
  <path class="cls-1" d="M1010.67,104.84c0,1.54-1.25,2.81-2.81,2.81h-46.96l33.21,33.21c1.1,1.08,1.1,2.87,0,3.97-.55.55-1.25.83-1.98.83s-1.43-.28-1.98-.83l-33.21-33.21v46.96c0,1.54-1.25,2.81-2.81,2.81s-2.81-1.27-2.81-2.81v-46.96l-33.2,33.21c-1.08,1.1-2.87,1.1-3.97,0-1.1-1.1-1.1-2.88,0-3.97l33.21-33.21h-46.96c-1.54,0-2.81-1.27-2.81-2.81s1.27-2.81,2.81-2.81h46.96l-33.21-33.21c-1.1-1.1-1.1-2.88,0-3.97,1.1-1.1,2.88-1.1,3.97,0l33.2,33.2v-46.96c0-1.56,1.27-2.81,2.81-2.81s2.81,1.25,2.81,2.81v46.96l33.21-33.2c1.1-1.1,2.88-1.1,3.97,0,.55.53.83,1.27.83,1.98s-.28,1.43-.83,1.98l-33.21,33.21h46.96c1.56,0,2.81,1.25,2.81,2.81Z"/>
</svg>