<svg width="50" height="50" viewBox="0 0 50 50" fill="none" xmlns="http://www.w3.org/2000/svg">
<path d="M32.4849 6.30664C30.5845 4.25488 27.9302 3.125 25.0006 3.125C22.0552 3.125 19.3922 4.24805 17.5006 6.28711C15.5885 8.34863 14.6568 11.1504 14.8756 14.1758C15.3092 20.1445 19.8511 25 25.0006 25C30.15 25 34.6842 20.1455 35.1246 14.1777C35.3463 11.1797 34.4088 8.38379 32.4849 6.30664ZM42.1881 46.875H7.81306C7.36312 46.8809 6.91754 46.7863 6.50873 46.5983C6.09992 46.4103 5.73816 46.1335 5.44978 45.7881C4.81501 45.0293 4.55915 43.9932 4.74861 42.9453C5.57282 38.373 8.14509 34.5322 12.1881 31.8359C15.7799 29.4424 20.3297 28.125 25.0006 28.125C29.6715 28.125 34.2213 29.4434 37.8131 31.8359C41.856 34.5312 44.4283 38.3721 45.2525 42.9443C45.442 43.9922 45.1861 45.0283 44.5513 45.7871C44.2631 46.1327 43.9013 46.4097 43.4925 46.5979C43.0837 46.7861 42.6381 46.8807 42.1881 46.875Z" fill="white"/>
</svg>
